<svg width="1576" height="2372" viewBox="0 0 1576 2372" fill="none" xmlns="http://www.w3.org/2000/svg">
<g clip-path="url(#clip0)">
<path opacity="0.18" d="M292.091 1458.89C309.114 1379.38 336.958 1311.48 375.623 1255.19C416.506 1199.73 462.385 1151.18 513.262 1109.55C564.139 1067.91 616.688 1031.96 670.909 1001.67C727.347 972.211 780.741 944.142 831.092 917.464C882.269 888.568 925.969 859.41 962.192 829.988C1001.46 799.176 1028.94 762.709 1044.65 720.587C1070.28 651.862 1068.65 591.91 1039.75 540.732C1013.07 490.381 966.483 452.805 899.976 428.006C837.903 404.859 777.108 398.602 717.589 409.236C660.287 420.697 601.201 440.33 540.329 468.135L362.74 121.614C474.225 59.6522 593.507 20.7994 720.584 5.05562C849.879 -9.86164 979.925 7.06634 1110.72 55.8396C1199.4 88.9062 1277.29 130.578 1344.4 180.854C1413.72 231.957 1467.41 291.119 1505.47 358.342C1545.75 426.391 1567.77 502.782 1571.53 587.515C1578.33 670.857 1563.54 761.301 1527.16 858.847C1501.54 927.573 1466.2 985.101 1421.14 1031.43C1376.92 1075.54 1327.28 1113.85 1272.23 1146.36C1219.4 1179.68 1163.66 1210.67 1105 1239.3C1049.39 1266.54 995.173 1296.83 942.342 1330.16C891.728 1364.31 846.525 1404.27 806.733 1450.04C767.767 1493.59 739.209 1549.86 721.059 1618.85L292.091 1458.89ZM203.584 2346.33C119.343 2314.91 60.2575 2260.05 26.3291 2181.74C-6.77252 2101.22 -7.20296 2017.73 25.0379 1931.27C58.1054 1842.59 113.097 1779.76 190.013 1742.79C267.756 1703.6 348.749 1699.71 432.99 1731.12C517.232 1762.54 575.904 1818.5 609.006 1899.03C645.151 1978.16 646.69 2062.07 613.622 2150.75C581.381 2237.21 525.281 2299.62 445.321 2337.98C368.405 2374.96 287.826 2377.74 203.584 2346.33Z" fill="#C6C7C5"/>
</g>
<defs>
<clipPath id="clip0">
<rect width="1576" height="2372" fill="white"/>
</clipPath>
</defs>
</svg>
