<svg width="66" height="66" viewBox="0 0 66 66" fill="none" xmlns="http://www.w3.org/2000/svg" roile="img">
<title>EQUAL Day</title>
<path fill-rule="evenodd" clip-rule="evenodd" d="M0.151047 0.203125V26.7231V39.9831V52.4633V65.7233H13.7662H29.2695V52.4633H13.7662V39.9831H22.9698L30.513 26.7231H13.7662V13.1492L0.151047 0.203125Z" fill="#AAB72C"/>
<path fill-rule="evenodd" clip-rule="evenodd" d="M65.8488 32.9634C65.8488 14.9286 50.8852 0.30177 32.3902 0.207551V0.203156H5.65038L8.49374 2.97234H32.2114C49.1915 2.97234 63.0055 16.4263 63.0055 32.9634C63.0055 49.2211 49.6538 62.4984 33.0683 62.942V65.7129C51.2499 65.2701 65.8488 50.777 65.8488 32.9634Z" fill="#7F8184"/>
<path fill-rule="evenodd" clip-rule="evenodd" d="M55.2375 32.9631C55.2375 20.6563 45.0044 10.6369 32.3902 10.5424V10.538H16.5017L19.3451 13.3071H32.2114C43.3581 13.3071 52.3942 22.1075 52.3942 32.9631C52.3942 43.5391 43.817 52.1606 33.0683 52.5982V55.3674C45.3688 54.9262 55.2375 45.0485 55.2375 32.9631Z" fill="#7F8184"/>
</svg>
